<svg width="27" height="35" viewBox="0 0 27 35" fill="none" xmlns="http://www.w3.org/2000/svg">
<path d="M23.2028 0.188966C24.0703 0.188966 24.8043 0.522605 25.4715 1.12315C26.0721 1.79043 26.4057 2.52444 26.4057 3.3919V34.3536L13.594 26.8801L0.782262 34.3536V3.3919C0.782262 2.52444 1.04917 1.79043 1.71645 1.12315C2.317 0.522605 3.05101 0.188966 3.98519 0.188966H23.2028ZM24.2704 30.6168V3.3919C24.2704 3.12499 24.137 2.85808 23.9368 2.65789C23.7366 2.45771 23.4697 2.32425 23.2028 2.32425H3.98519C3.65156 2.32425 3.38464 2.45771 3.18446 2.65789C2.98428 2.85808 2.91755 3.12499 2.91755 3.3919V30.6168L13.594 24.4111L24.2704 30.6168Z" fill="#0C0C0C"/>
</svg>
